<svg width="17" height="17" viewBox="0 0 17 17" fill="none" xmlns="http://www.w3.org/2000/svg">
<path d="M14.3043 0L16.9883 2.68402L14.9422 4.73103L12.2582 2.04701L14.3043 0ZM4.47363 12.5147H7.15765L13.6771 5.9952L10.9931 3.31118L4.47363 9.83066V12.5147Z" fill="#fff"/>
<path d="M14.3147 15.1985H4.61472C4.59146 15.1985 4.5673 15.2075 4.54404 15.2075C4.51451 15.2075 4.48499 15.1994 4.45457 15.1985H1.78934V2.67313H7.91516L9.70451 0.883789H1.78934C0.802521 0.883789 0 1.68542 0 2.67313V15.1985C0 16.1863 0.802521 16.9879 1.78934 16.9879H14.3147C14.7893 16.9879 15.2444 16.7994 15.58 16.4638C15.9156 16.1282 16.1041 15.6731 16.1041 15.1985V7.44352L14.3147 9.23287V15.1985Z" fill="#fff"/>
</svg>
